HIERARCHY
ROOT Hips
{
	OFFSET -32.860001 56.121803 44.745396
	CHANNELS 6 Xposition Yposition Zposition Zrotation Xrotation Yrotation
	JOINT Chest
	{
		OFFSET -0.637402 0.831600 5.390099
		CHANNELS 6 Xposition Yposition Zposition Zrotation Xrotation Yrotation
		JOINT Chest2
		{
			OFFSET 0.000000 0.000000 4.429901
			CHANNELS 6 Xposition Yposition Zposition Zrotation Xrotation Yrotation
			JOINT Neck
			{
				OFFSET 0.000000 0.000000 10.301395
				CHANNELS 6 Xposition Yposition Zposition Zrotation Xrotation Yrotation
				JOINT Head
				{
					OFFSET 0.000000 0.000000 2.173897
					CHANNELS 6 Xposition Yposition Zposition Zrotation Xrotation Yrotation
					End Site
					{
						OFFSET 0.000000 0.000000 8.298004
					}
				}
			}
			JOINT LeftCollar
			{
				OFFSET 2.142401 -0.572701 5.717800
				CHANNELS 6 Xposition Yposition Zposition Zrotation Xrotation Yrotation
				JOINT LeftShoulder
				{
					OFFSET 5.674000 0.000000 0.000000
					CHANNELS 6 Xposition Yposition Zposition Zrotation Xrotation Yrotation
					JOINT LeftElbow
					{
						OFFSET 0.000000 0.000000 -12.238701
						CHANNELS 6 Xposition Yposition Zposition Zrotation Xrotation Yrotation
						JOINT LeftWrist
						{
							OFFSET 0.000000 0.000000 -10.253700
							CHANNELS 6 Xposition Yposition Zposition Zrotation Xrotation Yrotation
							End Site
							{
								OFFSET 0.000000 0.000000 -2.173901
							}
						}
					}
				}
			}
			JOINT RightCollar
			{
				OFFSET -2.882599 -1.580101 6.695801
				CHANNELS 6 Xposition Yposition Zposition Zrotation Xrotation Yrotation
				JOINT RightShoulder
				{
					OFFSET -4.235600 0.000000 0.000000
					CHANNELS 6 Xposition Yposition Zposition Zrotation Xrotation Yrotation
					JOINT RightElbow
					{
						OFFSET 0.000000 0.000000 -10.709900
						CHANNELS 6 Xposition Yposition Zposition Zrotation Xrotation Yrotation
						JOINT RightWrist
						{
							OFFSET 0.000000 0.000000 -11.716801
							CHANNELS 6 Xposition Yposition Zposition Zrotation Xrotation Yrotation
							End Site
							{
								OFFSET 0.000000 0.000000 -2.173901
							}
						}
					}
				}
			}
		}
	}
	JOINT LeftHip
	{
		OFFSET 2.279499 0.210400 -2.475502
		CHANNELS 6 Xposition Yposition Zposition Zrotation Xrotation Yrotation
		JOINT LeftKnee
		{
			OFFSET 0.000000 -0.000004 -20.742800
			CHANNELS 6 Xposition Yposition Zposition Zrotation Xrotation Yrotation
			JOINT LeftAnkle
			{
				OFFSET 0.000000 0.000000 -16.666000
				CHANNELS 6 Xposition Yposition Zposition Zrotation Xrotation Yrotation
				End Site
				{
					OFFSET 0.000000 -8.310898 0.000000
				}
			}
		}
	}
	JOINT RightHip
	{
		OFFSET -1.961899 0.232300 -2.727402
		CHANNELS 6 Xposition Yposition Zposition Zrotation Xrotation Yrotation
		JOINT RightKnee
		{
			OFFSET 0.000000 -0.000004 -20.526800
			CHANNELS 6 Xposition Yposition Zposition Zrotation Xrotation Yrotation
			JOINT RightAnkle
			{
				OFFSET 0.000000 0.000000 -16.867300
				CHANNELS 6 Xposition Yposition Zposition Zrotation Xrotation Yrotation
				End Site
				{
					OFFSET 0.000000 -7.186401 0.000000
				}
			}
		}
	}
}
MOTION
Frames: 6
Frame Time: 0.041667
-48.532394 20.499306 42.738594 761.721165 -11.278292 22.562324 -0.637398 0.831595 5.390099 -46.516245 -17.799698 18.264341 0.000005 -0.000005 4.429906 30.183873 -1.314345 0.403086 0.000002 0.000010 10.301401 328.150100 -23.472331 -5.478911 -0.000003 -0.000001 2.173900 -359.033921 -9.297407 0.048513 2.142389 -0.572693 5.717797 -17.807539 0.638821 1.248203 5.674002 0.000004 0.000005 325.509576 -378.446766 -21.516156 0.000000 0.000006 -12.238693 -739.444640 -8.962306 -0.829675 0.000004 -0.000006 -10.253700 402.107170 -29.956428 12.880285 -2.882600 -1.580099 6.695802 -4.494065 7.006398 12.055409 -4.235611 -0.000007 -0.000015 -612.691410 -35.639879 -160.895583 -0.000004 0.000002 -10.709902 122.452192 -157.124486 149.325666 0.000001 0.000003 -11.716797 -697.360238 -3.533486 373.148288 2.279498 0.210396 -2.475504 232.990867 27.005275 49.721182 -0.000002 0.000004 -20.742794 -358.697575 -12.646454 5.765633 -0.000003 -0.000005 -16.665998 509.079680 26.118437 76.410351 -1.961890 0.232296 -2.727407 -1096.790466 -12.236690 -8.427433 0.000000 -0.000001 -20.526802 906.842358 156.590324 -183.191725 -0.000006 -0.000000 -16.867302 39.037263 39.116288 -16.238348
-48.529305 20.510300 42.743187 761.712149 -11.296427 22.508103 -0.637407 0.831601 5.390098 -46.450091 -17.658129 18.285496 0.000001 0.000001 4.429899 30.175561 -1.322387 0.404296 -0.000006 -0.000002 10.301396 328.274000 -23.523182 -5.424125 -0.000005 0.000004 2.173901 -359.088535 -9.315797 0.061891 2.142393 -0.572702 5.717797 -17.780137 0.621933 1.240837 5.674010 -0.000001 -0.000005 325.580064 -378.633558 -21.592072 0.000003 -0.000005 -12.238701 -739.087448 -9.035802 -0.802480 -0.000007 0.000003 -10.253694 401.650558 -29.983120 12.975123 -2.882609 -1.580100 6.695796 -4.446897 7.016349 12.042610 -4.235614 0.000002 -0.000002 -612.883256 -35.813759 -161.064344 0.000003 0.000002 -10.709900 122.208176 -156.937339 148.835068 -0.000001 0.000005 -11.716803 -696.579684 -3.498181 374.057933 2.279493 0.210400 -2.475504 233.400787 27.254097 49.512414 0.000006 -0.000002 -20.742798 -358.743474 -12.556417 5.864879 -0.000004 0.000013 -16.666002 508.714129 26.086866 76.415651 -1.961895 0.232298 -2.727395 -1096.894175 -12.263119 -8.392788 0.000007 -0.000002 -20.526802 906.931643 156.520287 -183.179991 -0.000008 -0.000002 -16.867302 39.012896 39.135976 -16.164003
-48.526199 20.522198 42.747490 761.687506 -11.315424 22.435006 -0.637407 0.831595 5.390100 -46.366773 -17.527102 18.314136 0.000001 -0.000008 4.429903 30.165151 -1.328661 0.405128 0.000006 0.000010 10.301391 328.401369 -23.572159 -5.359547 -0.000006 0.000002 2.173910 -359.136510 -9.334763 0.072965 2.142402 -0.572696 5.717798 -17.762984 0.605166 1.223305 5.673998 0.000007 0.000002 325.709646 -378.866741 -21.663232 -0.000008 0.000010 -12.238703 -738.497101 -9.109273 -0.734695 0.000001 -0.000005 -10.253698 400.923963 -30.000383 13.079975 -2.882601 -1.580096 6.695796 -4.401355 7.025120 12.036003 -4.235613 -0.000003 -0.000011 -613.071551 -36.005684 -161.234265 0.000001 0.000000 -10.709911 121.943943 -156.756420 148.315864 0.000000 0.000002 -11.716800 -695.584389 -3.450748 374.893483 2.279497 0.210388 -2.475500 233.619572 27.333562 49.380676 0.000000 0.000004 -20.742802 -358.753200 -12.537517 5.908841 0.000002 0.000003 -16.666004 508.546051 26.061859 76.413015 -1.961895 0.232291 -2.727397 -1096.869477 -12.293587 -8.330789 0.000003 -0.000007 -20.526800 906.965739 156.481833 -183.169472 -0.000008 -0.000004 -16.867302 38.915788 39.157355 -16.053251
-48.523197 20.535091 42.751591 761.644612 -11.333069 22.339647 -0.637407 0.831603 5.390094 -46.264747 -17.411684 18.351885 -0.000002 -0.000010 4.429904 30.149640 -1.332724 0.405328 0.000002 0.000006 10.301396 328.520734 -23.616725 -5.287635 -0.000001 0.000000 2.173910 -359.168858 -9.355556 0.077986 2.142399 -0.572694 5.717799 -17.757022 0.588333 1.198499 5.674006 0.000006 0.000002 325.894826 -379.140276 -21.736831 -0.000005 0.000009 -12.238705 -737.715290 -9.185576 -0.634362 0.000001 0.000002 -10.253704 399.978446 -30.010215 13.191852 -2.882606 -1.580096 6.695802 -4.360078 7.033381 12.038374 -4.235616 0.000001 0.000001 -613.234109 -36.213690 -161.393491 0.000012 -0.000004 -10.709900 121.653742 -156.593097 147.782795 -0.000008 -0.000001 -11.716805 -694.262173 -3.401427 375.541149 2.279498 0.210398 -2.475504 234.071894 27.557021 49.129213 0.000004 -0.000003 -20.742804 -358.802350 -12.450893 6.019848 -0.000005 0.000008 -16.666006 508.189843 26.030715 76.419899 -1.961896 0.232303 -2.727406 -1096.955592 -12.341975 -8.273883 0.000002 -0.000003 -20.526798 907.068520 156.410034 -183.154542 -0.000002 -0.000001 -16.867302 38.867294 39.178809 -15.930921
-48.520599 20.548805 42.755291 761.586310 -11.346087 22.223521 -0.637400 0.831599 5.390100 -46.148614 -17.310078 18.397690 0.000003 -0.000006 4.429899 30.121821 -1.334993 0.404492 -0.000010 0.000006 10.301391 328.629743 -23.659135 -5.211686 -0.000013 -0.000002 2.173901 -359.181671 -9.376749 0.077687 2.142394 -0.572696 5.717793 -17.757997 0.568021 1.171650 5.673994 0.000004 -0.000004 326.133746 -379.446733 -21.816842 0.000004 0.000005 -12.238700 -736.855779 -9.266262 -0.519489 0.000003 0.000006 -10.253698 398.934957 -30.016144 13.309703 -2.882605 -1.580091 6.695795 -4.333632 7.034225 12.054349 -4.235607 0.000002 -0.000001 -613.324923 -36.430836 -161.527458 0.000004 0.000010 -10.709900 121.348501 -156.454581 147.252950 0.000002 0.000006 -11.716792 -692.512607 -3.352213 375.881757 2.279499 0.210388 -2.475492 234.533451 27.760933 48.858638 0.000001 -0.000004 -20.742804 -358.852320 -12.368995 6.132155 -0.000002 0.000013 -16.665998 507.848170 26.001560 76.428546 -1.961890 0.232297 -2.727395 -1097.044767 -12.403787 -8.209944 -0.000000 -0.000003 -20.526798 907.188622 156.337457 -183.136291 -0.000000 -0.000002 -16.867302 38.804699 39.200119 -15.785809
-48.518204 20.563301 42.758495 761.514893 -11.351656 22.089158 -0.637402 0.831601 5.390095 -46.021678 -17.220514 18.450689 0.000008 -0.000001 4.429904 30.072766 -1.337030 0.402020 0.000004 0.000000 10.301396 328.728153 -23.772933 -5.117158 -0.000000 -0.000002 2.173898 -359.182409 -9.322810 0.052026 2.142391 -0.572702 5.717801 -17.754722 0.539290 1.149383 5.674004 -0.000001 0.000007 326.413675 -379.778134 -21.912739 -0.000000 0.000000 -12.238703 -735.957309 -9.348660 -0.394178 -0.000004 0.000009 -10.253698 397.841444 -30.024511 13.434967 -2.882602 -1.580103 6.695797 -4.318262 7.034758 12.076345 -4.235613 -0.000001 -0.000002 -613.358200 -36.651775 -161.642287 -0.000001 -0.000004 -10.709898 121.020160 -156.343003 146.728255 0.000000 0.000007 -11.716803 -690.103845 -3.409267 375.339932 2.279496 0.210398 -2.475496 235.010253 27.954122 48.565281 0.000002 -0.000003 -20.742802 -358.902972 -12.289325 6.247845 -0.000005 -0.000003 -16.666000 507.511687 25.974016 76.439932 -1.961892 0.232300 -2.727398 -1097.144652 -12.479429 -8.143486 0.000001 -0.000002 -20.526798 907.333422 156.264374 -183.114161 -0.000003 0.000002 -16.867300 38.726616 39.220159 -15.622179
